<svg id="Layer_1" data-name="Layer 1" xmlns="http://www.w3.org/2000/svg" viewBox="0 0 48 48"><title>1. Balance</title><rect x="12.37" y="8.05" width="23.26" height="2"/><path d="M24,16.26A10.67,10.67,0,0,1,14.06,9.4l1.87-.71a8.63,8.63,0,0,0,16.14,0l1.87.7A10.67,10.67,0,0,1,24,16.26Z"/><path d="M24,10.05a4.22,4.22,0,1,1,4.22-4.22A4.22,4.22,0,0,1,24,10.05Zm0-6.43a2.22,2.22,0,1,0,2.22,2.21A2.21,2.21,0,0,0,24,3.62Z"/><path d="M38,12.41a3.36,3.36,0,1,1,3.36-3.36A3.36,3.36,0,0,1,38,12.41Zm0-4.72a1.36,1.36,0,1,0,1.36,1.36A1.35,1.35,0,0,0,38,7.69Z"/><path d="M10,12.41a3.36,3.36,0,1,1,3.36-3.36A3.37,3.37,0,0,1,10,12.41Zm0-4.72a1.36,1.36,0,1,0,1.36,1.36A1.36,1.36,0,0,0,10,7.69Z"/><rect x="26.67" y="19.07" width="17.96" height="2" transform="translate(6.99 49.27) rotate(-74.92)"/><rect x="39.32" y="11.09" width="2" height="17.96" transform="translate(-3.83 11.18) rotate(-15.08)"/><path d="M42.65,29.74H33.31a1,1,0,0,1,0-2h9.34a1,1,0,0,1,0,2Z"/><path d="M38,34.19a5.56,5.56,0,0,1-5.65-5.45,1,1,0,1,1,2,0,3.66,3.66,0,0,0,7.31,0,1,1,0,1,1,2,0A5.56,5.56,0,0,1,38,34.19Z"/><rect x="-1.3" y="19.07" width="17.96" height="2" transform="matrix(0.26, -0.97, 0.97, 0.26, -13.7, 22.28)"/><rect x="11.35" y="11.09" width="2" height="17.96" transform="matrix(0.97, -0.26, 0.26, 0.97, -4.79, 3.9)"/><path d="M14.68,29.74H5.35a1,1,0,1,1,0-2h9.33a1,1,0,1,1,0,2Z"/><path d="M10,34.19a5.56,5.56,0,0,1-5.65-5.45,1,1,0,0,1,2,0A3.55,3.55,0,0,0,10,32.19a3.56,3.56,0,0,0,3.66-3.45,1,1,0,0,1,2,0A5.56,5.56,0,0,1,10,34.19Z"/><rect x="8.27" y="26.33" width="24.98" height="2" transform="translate(-11.01 40.31) rotate(-75)"/><rect x="26.23" y="14.84" width="2" height="24.98" transform="translate(-6.15 7.98) rotate(-15)"/><path d="M37.53,46.38H10.47V44.62a6.24,6.24,0,0,1,6.22-6.23H31.31a6.24,6.24,0,0,1,6.22,6.23Zm-25.06-2H35.52a4.23,4.23,0,0,0-4.21-4H16.69A4.24,4.24,0,0,0,12.47,44.38Z"/></svg>